<svg width="1600" height="683" viewBox="0 0 1600 683" fill="none" xmlns="http://www.w3.org/2000/svg">
<path d="M1236.49 138.066C1220.42 121.751 1201.05 108.912 1180.19 99.6811L1200.86 63.2253C1173.84 51.1527 1144.93 43.9867 1115.02 42.058L1112.22 83.0117C1088.67 81.284 1064.79 83.7815 1042.13 90.3509L1027.17 51.2813C999.236 59.3227 973.395 71.7664 950.858 88.7011L950.536 88.9431L981.592 119.9C962.918 133.931 948.915 150.43 938.738 168.537L896.737 149.789C883.423 173.242 875.745 198.436 874.067 224.602L920.57 228.013C919.01 248.611 922.281 269.563 929.9 289.241L884.895 302.138C894.248 326.988 909.518 349.883 929.255 369.918L930.101 370.777L961.734 346.012L964.631 343.835C980.703 360.15 1000.07 372.989 1020.61 382.462L999.936 418.917C1026.96 430.99 1055.87 438.156 1085.78 440.085L1088.86 399.417C1112.42 401.145 1136.29 398.647 1158.91 392.606L1173.87 431.676C1202.41 423.679 1227.97 410.949 1250.5 394.014L1252.11 392.804L1253.72 391.595L1219.77 362.815C1238.12 349.026 1252.45 332.285 1262.91 314.465L1304.91 333.212C1318.22 309.759 1325.9 284.565 1327.9 258.157L1281.4 254.746C1282.96 234.148 1279.69 213.196 1272.39 193.277L1316.75 180.864C1307.11 155.727 1292.13 133.119 1271.83 112.511L1236.49 138.066ZM1157.82 298.79C1121.76 325.885 1066.8 321.854 1035.22 289.797C1003.64 257.74 1007.28 209.678 1043.34 182.583C1079.4 155.487 1134.36 159.518 1165.94 191.576C1197.48 224.161 1193.56 271.936 1157.82 298.79Z" fill="#133447" fill-opacity="0.2"/>
<path d="M980.611 121.114C905.695 177.417 898.516 277.019 963.916 343.395C1029.6 410.057 1143.48 418.183 1218.07 362.121C1292.99 305.818 1300.17 206.216 1234.77 139.84C1169.37 73.4635 1055.21 65.0525 980.611 121.114ZM1156.32 299.448C1120.46 326.396 1065.79 322.368 1034.35 290.461C1002.91 258.555 1006.5 210.736 1042.36 183.787C1078.22 156.839 1132.9 160.868 1164.33 192.774C1195.73 225.206 1191.86 272.74 1156.32 299.448Z" fill="#1E5370" fill-opacity="0.2"/>
<path d="M1671.73 683L5.10331e-05 683V413.514C5.10331e-05 413.514 18.157 454.378 62.1676 453.937C108.048 453.476 85.3703 365.145 121.723 353.104C154.609 342.211 192.73 379.873 233.52 383.197C293.375 388.074 258.286 447.863 319.197 448.322C381.045 448.789 366.443 411.578 424.202 402.061C468.97 394.684 519.835 417.611 566.822 413.514C636.795 407.412 642.955 368.705 714.143 366.354C772.572 364.424 780.586 376.677 825.941 392.629C871.913 408.798 850.821 427.573 904.825 434.174C964.215 441.434 959.033 368.191 1009.83 353.104C1038.56 344.57 1096.44 409.43 1122.15 402.061C1187.98 383.197 1148.26 342.552 1196.33 321.889C1247.01 300.105 1329.28 321.948 1356.72 299.431C1373.96 285.283 1391.22 236.79 1429.33 237C1466.79 237.207 1488.58 329.609 1525.46 332.443C1574.67 336.227 1589.97 306.335 1639.87 307.741C1736.55 310.464 1671.73 413.514 1671.73 413.514V683Z" fill="#0091C8" fill-opacity="0.65"/>
</svg>
