<svg width="150" height="40" viewBox="0 0 150 40" fill="none" xmlns="http://www.w3.org/2000/svg">
<path d="M42.2367 0L18.1914 38.6348L56.2736 38.7031L42.2367 0Z" fill="#FF3721"/>
<path d="M0 0.136475V0.341253L14.0369 38.6348L37.9564 0.136475H0Z" fill="#FF3721"/>
<path d="M16.8694 11.1266L22.3457 3.61806L18.7578 3.5498L14.4775 9.42011L14.5404 3.5498H11.519L11.4561 20.4781L14.4775 20.5464V12.9696L19.2613 20.5464H22.7863L16.8694 11.1266Z" fill="white"/>
<path d="M44.6915 25.5292C44.125 24.6418 43.4326 24.0275 42.6143 23.7544C41.796 23.4131 40.7259 23.2766 39.404 23.2766H38.7746V20.0002H43.9991V16.8603L35.8161 16.792L35.7532 33.7886H40.1594C41.4812 33.7886 42.4884 33.5838 43.1808 33.1742C43.9361 32.7647 44.5026 32.1503 44.9433 31.4678C45.3839 30.7852 45.5727 29.8295 45.5727 28.6691C45.5098 27.4405 45.258 26.3483 44.6915 25.5292ZM42.0478 30.1708C41.6701 30.5804 40.8518 30.7169 39.467 30.7169H38.7116V26.1435H39.3411C41.4812 26.1435 42.6143 26.9626 42.6143 28.6009C42.6143 29.2152 42.4254 29.7613 42.0478 30.1708Z" fill="white"/>
<path d="M66.4078 0.204778H64.3306L58.036 6.5529V0.204778H56.4624L56.3994 17.2014H57.9731L58.036 9.28328L64.8342 17.1331H66.9114L58.8543 7.78157L66.4078 0.204778ZM76.0385 0.477816C75.4091 0.273038 74.2131 0.204778 72.4506 0.204778H69.3033L69.2404 17.2014H70.814L70.877 9.28328H72.01C73.9613 9.28328 75.2832 9.21502 75.9756 9.01024C76.9198 8.7372 77.7381 8.25939 78.2416 7.50853C78.8081 6.75768 79.0599 5.87031 79.0599 4.7099C79.0599 3.61775 78.8081 2.66212 78.2416 1.91126C77.6751 1.22867 76.9827 0.750853 76.0385 0.477816ZM77.0457 6.34812C76.7309 6.82594 76.3533 7.16724 75.8497 7.37201C75.3461 7.57679 74.5908 7.71331 73.5207 7.64505L70.877 7.57679V1.843H73.6466C74.7167 1.843 75.472 1.97952 75.9126 2.1843C76.3533 2.38908 76.7309 2.73038 77.0457 3.20819C77.2974 3.68601 77.4863 4.23208 77.4863 4.77816C77.4863 5.39249 77.2974 5.87031 77.0457 6.34812ZM88.25 0.341297L80.7595 17.2696H82.522L84.9768 11.6724L91.7121 11.7406L94.1669 17.3379H95.8665L88.6277 0.341297H88.25ZM85.7322 10.0341L88.4389 3.89078L91.0826 10.0341H85.7322ZM102.602 2.66212C103.672 2.04778 104.805 1.70648 106.064 1.70648C107.197 1.70648 108.267 1.97952 109.211 2.45734C110.155 2.93515 110.973 3.68601 111.666 4.64164L112.925 3.61775C112.169 2.45734 111.225 1.56997 110.029 0.955631C108.833 0.341297 107.511 0 106.064 0C103.672 0 101.657 0.819113 100.021 2.5256C98.3843 4.23208 97.566 6.27986 97.566 8.80546C97.566 11.1945 98.1955 13.1741 99.5173 14.8805C101.091 16.8601 103.231 17.884 106.001 17.884C107.449 17.884 108.77 17.6109 109.903 16.9966C111.099 16.3823 112.044 15.5631 112.862 14.5392L111.603 13.5154C110.092 15.3584 108.267 16.314 106.064 16.2457C104.049 16.2457 102.413 15.5631 101.091 14.1297C99.7691 12.6962 99.1397 10.9898 99.1397 8.94198C99.1397 7.57679 99.4544 6.34812 100.021 5.25597C100.713 4.16382 101.532 3.27645 102.602 2.66212ZM122.556 8.19113C121.674 7.78157 120.289 7.64505 118.338 7.57679H117.583V2.11604L123.877 2.1843V0.546075L116.009 0.477816L115.946 17.4744H120.227C121.8 17.4744 123.059 16.9966 123.94 16.041C124.822 15.0853 125.262 13.9249 125.325 12.628C125.325 11.6724 125.073 10.7167 124.57 9.96587C124.129 9.14676 123.437 8.53242 122.556 8.19113ZM123.248 14.3345C122.933 14.8123 122.493 15.2218 121.989 15.4266C121.485 15.6997 120.604 15.7679 119.471 15.7679H117.52V9.28328H118.401C119.723 9.28328 120.73 9.35154 121.36 9.55631C122.052 9.76109 122.556 10.1024 122.996 10.6485C123.437 11.1945 123.689 11.8771 123.626 12.628C123.752 13.3106 123.563 13.8567 123.248 14.3345ZM128.472 17.5427L137.348 17.6109V15.9727L129.983 15.9044L130.046 9.21502L137.411 9.28328V7.64505L130.046 7.57679V2.25256L137.474 2.32082V0.682594L128.535 0.614334L128.472 17.5427ZM149.119 2.38908C148.552 1.63823 147.797 1.16041 146.916 0.887372C146.286 0.682594 145.09 0.614334 143.328 0.614334H140.18L140.117 17.6109H141.691L141.754 9.69283H142.887C144.838 9.69283 146.16 9.62457 146.853 9.4198C147.797 9.14676 148.615 8.66894 149.119 7.91809C149.685 7.16724 149.937 6.27986 149.937 5.11945C150 4.09556 149.685 3.13993 149.119 2.38908ZM147.923 6.75768C147.608 7.23549 147.23 7.57679 146.727 7.78157C146.223 7.98635 145.468 8.12287 144.398 8.05461L141.754 7.98635V2.25256H144.524C145.594 2.25256 146.349 2.38908 146.79 2.59386C147.23 2.79863 147.608 3.13993 147.923 3.61775C148.175 4.09556 148.363 4.64164 148.363 5.18771C148.363 5.80205 148.237 6.27986 147.923 6.75768Z" fill="#FF3721"/>
<path d="M66.7855 32.5597C66.4708 32.2866 66.0931 32.0818 65.5266 31.8771C65.9672 31.604 66.2819 31.2627 66.5337 30.9214C66.7855 30.5119 66.8484 30.0341 66.8484 29.5562C66.8484 29.0102 66.7226 28.5324 66.4708 28.1228C66.219 27.7132 65.8413 27.3719 65.4636 27.1672C65.023 26.9624 64.3936 26.8259 63.5753 26.8259H61.561L61.498 38.0204H64.3306C65.3377 38.0204 66.156 37.7474 66.7855 37.133C67.415 36.5187 67.7297 35.7679 67.7297 34.8805C67.7297 34.4709 67.6667 34.0614 67.4779 33.6518C67.2891 33.174 67.1002 32.8327 66.7855 32.5597ZM62.5681 27.8498H63.7641C64.4565 27.8498 65.023 27.9863 65.3377 28.3276C65.6525 28.6006 65.8413 29.0102 65.8413 29.5562C65.8413 29.9658 65.7154 30.3071 65.5266 30.5801C65.3377 30.9214 65.086 31.1262 64.7083 31.2627C64.3306 31.3993 63.827 31.4675 63.1346 31.4675H62.5681V27.8498ZM66.2819 35.9044C66.0931 36.2457 65.7784 36.5187 65.4007 36.6552C65.023 36.7917 64.5195 36.86 63.7641 36.86H62.5052V32.5597H63.0717C63.9529 32.5597 64.5824 32.6279 64.8971 32.6962C65.4007 32.8327 65.8413 33.1057 66.156 33.447C66.4708 33.7883 66.5967 34.2661 66.5967 34.744C66.6596 35.1535 66.5337 35.5631 66.2819 35.9044ZM69.744 38.0204H75.5979V36.9283H70.7511V32.5597H75.5979V31.4675H70.7511V27.9863H75.6609V26.8941H69.744V38.0204ZM81.7666 31.8771C81.2001 31.604 80.2559 31.4675 78.934 31.4675H78.4305V27.8498H82.5849V26.7576H77.4233V38.0204H80.2559C81.326 38.0204 82.1443 37.6791 82.7108 37.0648C83.2773 36.4504 83.592 35.6996 83.592 34.8122C83.592 34.1296 83.4032 33.5836 83.0885 33.0375C82.8367 32.5597 82.3331 32.1501 81.7666 31.8771ZM82.2072 35.9726C82.0184 36.3139 81.7037 36.5187 81.3889 36.7235C81.0113 36.86 80.5077 36.9283 79.7523 36.9283H78.4934V32.6279H79.0599C79.9412 32.6279 80.5706 32.6962 81.0113 32.8327C81.4519 32.9692 81.8296 33.174 82.0813 33.5836C82.3331 33.9931 82.522 34.4027 82.522 34.8805C82.522 35.29 82.459 35.6313 82.2072 35.9726ZM84.9139 34.3344H88.7536V33.3788H84.9139V34.3344ZM93.3486 28.3958C94.0411 27.9863 94.7964 27.7815 95.6147 27.7815C96.37 27.7815 97.0624 27.9863 97.6919 28.2593C98.3214 28.6006 98.8879 29.0784 99.3285 29.6928L100.147 29.0102C99.6432 28.2593 99.0138 27.645 98.2584 27.2354C97.5031 26.8259 96.6218 26.6211 95.6776 26.6211C94.104 26.6211 92.7192 27.1672 91.7121 28.2593C90.642 29.3515 90.1384 30.7167 90.0755 32.4231C90.0755 33.9931 90.5161 35.29 91.3973 36.4505C92.4045 37.7474 93.8522 38.43 95.6776 38.43C96.6218 38.43 97.5031 38.2252 98.2584 37.8839C99.0138 37.4743 99.7062 36.9283 100.21 36.2457L99.3914 35.5631C98.3843 36.7917 97.1883 37.4061 95.7406 37.4061C94.4187 37.4061 93.3486 36.9283 92.4674 36.0409C91.5862 35.1535 91.2085 33.9931 91.2085 32.6279C91.2085 31.7405 91.3973 30.9214 91.775 30.1706C92.0897 29.3515 92.5933 28.8054 93.3486 28.3958ZM101.154 28.0545H103.483L103.42 38.1569H104.49L104.553 28.0545H106.882V26.9624H101.217L101.154 28.0545ZM111.792 34.6757L108.707 27.0306H107.511L111.225 36.0409C110.973 36.6552 110.785 37.0648 110.533 37.2013C110.344 37.3378 110.092 37.4061 109.84 37.4061C109.652 37.4061 109.463 37.3378 109.337 37.2696C109.148 37.2013 108.833 36.86 108.33 36.3139L107.574 36.9965C108.078 37.6109 108.519 38.0204 108.833 38.1569C109.148 38.2935 109.526 38.43 109.903 38.43C110.848 38.43 111.477 37.9522 111.855 36.9965L115.82 26.9624H114.687L111.792 34.6757ZM121.8 27.0989H121.422L117.331 37.2013H116.513V39.9317H117.52V38.2252L125.829 38.2935V39.9999H126.836V37.2696H126.018L121.8 27.0989ZM118.527 37.2013L121.611 29.3515L124.822 37.2013H118.527ZM129.354 35.8361L129.417 27.0989H128.409L128.347 38.2935H128.598L135.459 29.761L135.334 38.3617H136.404L136.467 27.1672H136.215L129.354 35.8361ZM142.824 27.1672C141.691 27.1672 140.873 27.2354 140.495 27.3037C139.866 27.4402 139.362 27.7815 138.984 28.2593C138.607 28.7371 138.418 29.3515 138.418 30.1023C138.418 30.7167 138.544 31.2627 138.796 31.7406C139.047 32.2184 139.425 32.5597 139.929 32.7644C140.432 33.0375 141.125 33.1057 141.943 33.1057L138.229 38.2935H139.488L143.202 33.1057H143.768V38.2935H144.775L144.838 27.0989L142.824 27.1672ZM143.831 32.0818H142.069C141.376 32.0818 140.873 32.0136 140.558 31.8771C140.243 31.7406 139.992 31.5358 139.803 31.1945C139.614 30.8532 139.551 30.5119 139.551 30.1706C139.551 29.761 139.677 29.488 139.866 29.1467C140.054 28.8737 140.306 28.6006 140.621 28.4641C140.936 28.3276 141.439 28.2593 142.132 28.2593H143.957L143.831 32.0818Z" fill="#FF3721"/>
</svg>
