<svg width="40" height="40" viewBox="0 0 40 40" fill="none" xmlns="http://www.w3.org/2000/svg">
<g clip-path="url(#clip0)">
<path d="M39.9922 15.2919C39.9881 15.246 39.9789 15.2006 39.9649 15.1566C39.9557 15.1173 39.943 15.0789 39.9269 15.0419C39.9082 15.0057 39.8859 14.9715 39.8602 14.9398C39.8345 14.9023 39.8048 14.8677 39.7716 14.8365C39.7609 14.8272 39.7563 14.8145 39.7449 14.8052L33.3333 9.8256V4.66472C33.3333 3.56013 32.4378 2.66462 31.3332 2.66462H24.1081L21.2152 0.418487C20.5006 -0.138885 19.4984 -0.138885 18.7838 0.418487L15.8903 2.66462H8.66522C7.56063 2.66462 6.66511 3.56005 6.66511 4.66472V9.82568L0.255492 14.8052C0.244163 14.8146 0.239475 14.8273 0.22885 14.8366C0.195645 14.8677 0.165878 14.9023 0.140173 14.9399C0.114547 14.9716 0.0922019 15.0057 0.0735291 15.042C0.0573564 15.0789 0.0446995 15.1174 0.0355584 15.1567C0.0216515 15.2 0.0125104 15.2447 0.0082133 15.29C0.0082133 15.304 0.000244141 15.316 0.000244141 15.33V37.9997C0.00118169 38.4238 0.138376 38.8363 0.391592 39.1764C0.395577 39.1824 0.39628 39.1898 0.40089 39.1951C0.405577 39.2004 0.415578 39.2064 0.422219 39.2137C0.796769 39.7066 1.3793 39.9971 1.99831 39.9998H38.0001C38.6216 39.9979 39.2065 39.706 39.5816 39.2105C39.5869 39.2038 39.5949 39.2018 39.5995 39.1951C39.6042 39.1885 39.6048 39.1825 39.6089 39.1765C39.8621 38.8363 39.9993 38.4238 40.0002 37.9998V15.3319C40.0002 15.3179 39.9929 15.3059 39.9922 15.2919ZM19.5991 1.47049C19.832 1.28548 20.1617 1.28548 20.3945 1.47049L21.9325 2.66454H18.0657L19.5991 1.47049ZM2.16629 38.6664L19.5992 25.1251C19.8322 24.9404 20.1617 24.9404 20.3946 25.1251L37.8321 38.6664H2.16629ZM38.6668 37.627L21.2152 24.073C20.5004 23.5161 19.4986 23.5161 18.7838 24.073L1.33156 37.627V16.3473L12.2568 24.8311C12.5479 25.0568 12.9668 25.0038 13.1926 24.7127C13.4183 24.4216 13.3653 24.0027 13.0742 23.7769L1.97495 15.1585L6.66519 11.5137V16.6652C6.66519 17.0335 6.96372 17.3319 7.33187 17.3319C7.70009 17.3319 7.99854 17.0334 7.99854 16.6652V4.66464C7.99854 4.29642 8.29699 3.99797 8.66522 3.99797H31.333C31.7012 3.99797 31.9997 4.29642 31.9997 4.66464V16.6652C31.9997 17.0335 32.2981 17.3319 32.6664 17.3319C33.0346 17.3319 33.333 17.0334 33.333 16.6652V11.5137L38.0233 15.1585L26.9047 23.7923C26.7135 23.9373 26.6148 24.1738 26.6465 24.4117C26.6782 24.6496 26.8354 24.8521 27.0579 24.9419C27.2805 25.0317 27.5342 24.995 27.7221 24.8457L38.6667 16.3473V37.627H38.6668Z" fill="#FF3721"/>
</g>
<defs>
<clipPath id="clip0">
<rect width="40" height="40" fill="white"/>
</clipPath>
</defs>
</svg>
