<svg width="35" height="35" viewBox="0 0 35 35" fill="none" xmlns="http://www.w3.org/2000/svg">
<g clip-path="url(#clip0)">
<path d="M34.0816 27.0008L26.9974 22.2765C26.0985 21.6818 24.8934 21.8775 24.2288 22.7262L22.1652 25.3794C21.9 25.7291 21.418 25.8305 21.0343 25.6174L20.6418 25.401C19.3406 24.6917 17.7215 23.8087 14.4594 20.5455C11.1973 17.2822 10.3125 15.6619 9.60325 14.3631L9.38802 13.9705C9.17197 13.587 9.27148 13.1029 9.62129 12.8355L12.2727 10.7726C13.121 10.1079 13.317 8.9032 12.723 8.00393L7.99868 0.919809C7.3899 0.00406616 6.1685 -0.270834 5.22603 0.295712L2.2637 2.07518C1.33292 2.62239 0.650048 3.5086 0.358265 4.54813C-0.708462 8.43487 0.0940261 15.1428 9.97541 25.0253C17.8358 32.8852 23.6876 34.9989 27.7096 34.9989C28.6353 35.0028 29.5573 34.8824 30.4509 34.6408C31.4907 34.3493 32.377 33.6664 32.9239 32.7353L34.7051 29.7748C35.2725 28.8321 34.9977 27.61 34.0816 27.0008ZM33.7001 29.1763L31.923 32.1387C31.5303 32.8107 30.8928 33.3048 30.144 33.5175C26.5559 34.5026 20.2872 33.6866 10.8007 24.2001C1.31413 14.7136 0.498244 8.4454 1.48336 4.85672C1.69634 4.10707 2.19105 3.46876 2.86388 3.07547L5.8262 1.29833C6.23514 1.05227 6.76525 1.17154 7.02942 1.56892L9.59573 5.42183L11.7497 8.65243C12.0076 9.0425 11.9229 9.5653 11.5549 9.85394L8.90288 11.9169C8.09581 12.534 7.86533 13.6506 8.36223 14.5368L8.57282 14.9194C9.31823 16.2866 10.245 17.9873 13.6284 21.3702C17.0118 24.753 18.712 25.6798 20.0785 26.4251L20.4617 26.6363C21.3478 27.1331 22.4645 26.9027 23.0817 26.0956L25.1446 23.4436C25.4333 23.0758 25.9559 22.9911 26.3461 23.2488L33.4296 27.9731C33.8272 28.2371 33.9465 28.7675 33.7001 29.1763Z" fill="#FF3721"/>
</g>
<defs>
<clipPath id="clip0">
<rect width="35" height="35" fill="white"/>
</clipPath>
</defs>
</svg>
