<svg width="40" height="40" viewBox="0 0 40 40" fill="none" xmlns="http://www.w3.org/2000/svg">
<g clip-path="url(#clip0)">
<path d="M37.8061 10.9095C34.4896 4.44081 27.7556 0 20 0C12.2418 0 5.50696 4.44251 2.19132 10.9158C2.17816 10.9417 2.16245 10.9651 2.15226 10.9923C0.779127 13.7016 0 16.7608 0 20C0 23.2401 0.779127 26.2993 2.15226 29.0077C2.16245 29.0349 2.17816 29.0583 2.19132 29.0842C5.50611 35.5575 12.2418 40 20 40C27.7556 40 34.4896 35.56 37.8061 29.0905C37.821 29.0616 37.8384 29.0357 37.8494 29.0052C39.2217 26.2967 40 23.2384 40 20C40 16.7616 39.2217 13.7033 37.8494 10.9948C37.8376 10.9642 37.821 10.9383 37.8061 10.9095ZM36.4738 27.8261H28.8302C29.2548 25.6836 29.507 23.3407 29.5546 20.8696H38.2167C38.0991 23.3505 37.4885 25.6993 36.4738 27.8261ZM20 38.2609C17.2495 38.2609 14.7826 34.7346 13.3836 29.5652H26.6164C25.2174 34.7346 22.7505 38.2609 20 38.2609ZM12.9679 27.8261C12.5183 25.6878 12.2461 23.3364 12.1939 20.8696H27.807C27.7539 23.3364 27.4817 25.6878 27.0329 27.8261H12.9679ZM1.78329 20.8696H10.4454C10.4938 23.3407 10.7452 25.6836 11.1698 27.8261H3.52624C2.51146 25.6993 1.9009 23.3505 1.78329 20.8696ZM3.52624 12.1739H11.1698C10.7452 14.3164 10.493 16.6593 10.4454 19.1304H1.78329C1.9009 16.6495 2.51146 14.3007 3.52624 12.1739ZM20 1.73913C22.7505 1.73913 25.2174 5.26537 26.6164 10.4348H13.3836C14.7826 5.26537 17.2495 1.73913 20 1.73913ZM27.0321 12.1739C27.4817 14.3113 27.7539 16.6636 27.8061 19.1304H12.193C12.2461 16.6636 12.5183 14.3113 12.9671 12.1739H27.0321ZM29.5546 19.1304C29.5062 16.6593 29.2548 14.3164 28.8302 12.1739H36.4738C37.4885 14.3007 38.0991 16.6495 38.2167 19.1304H29.5546ZM35.5252 10.4348H28.4366C27.5565 6.98454 26.2071 4.17035 24.5538 2.33738C29.172 3.52964 33.0783 6.47758 35.5252 10.4348ZM15.4454 2.33738C13.7929 4.17035 12.4435 6.98454 11.5625 10.4348H4.47393C6.9217 6.47758 10.828 3.52964 15.4454 2.33738ZM4.47478 29.5652H11.5625C12.4427 33.0155 13.792 35.8297 15.4454 37.6626C10.828 36.4704 6.9217 33.5216 4.47478 29.5652ZM24.5546 37.6626C26.2071 35.8297 27.5565 33.0155 28.4375 29.5652H35.5252C33.0783 33.5216 29.172 36.4704 24.5546 37.6626Z" fill="#FF3721"/>
</g>
<defs>
<clipPath id="clip0">
<rect width="40" height="40" fill="white"/>
</clipPath>
</defs>
</svg>
